<?xml version="1.0" encoding="us-ascii" standalone="no"?><svg xmlns="http://www.w3.org/2000/svg" xmlns:xlink="http://www.w3.org/1999/xlink" contentStyleType="text/css" height="659px" preserveAspectRatio="none" style="width:344px;height:659px;background:#FFFFFF;" version="1.1" viewBox="0 0 344 659" width="344px" zoomAndPan="magnify"><defs/><g><ellipse cx="175.5" cy="16" fill="#222222" rx="10" ry="10" style="stroke:#222222;stroke-width:1.0;"/><g id="IDLE"><rect fill="#F1F1F1" height="50" rx="12.5" ry="12.5" style="stroke:#181818;stroke-width:0.5;" width="50" x="150.5" y="87"/><line style="stroke:#181818;stroke-width:0.5;" x1="150.5" x2="200.5" y1="116.0679" y2="116.0679"/><text fill="#000000" font-family="sans-serif" font-size="14" lengthAdjust="spacing" textLength="30" x="160.5" y="106.9659">IDLE</text></g><g id="BIN3"><rect fill="#F1F1F1" height="50" rx="12.5" ry="12.5" style="stroke:#181818;stroke-width:0.5;" width="53" x="7" y="216"/><line style="stroke:#181818;stroke-width:0.5;" x1="7" x2="60" y1="245.0679" y2="245.0679"/><text fill="#000000" font-family="sans-serif" font-size="14" lengthAdjust="spacing" textLength="33" x="17" y="235.9659">BIN3</text></g><g id="BIN2"><rect fill="#F1F1F1" height="50" rx="12.5" ry="12.5" style="stroke:#181818;stroke-width:0.5;" width="53" x="115" y="345"/><line style="stroke:#181818;stroke-width:0.5;" x1="115" x2="168" y1="374.0679" y2="374.0679"/><text fill="#000000" font-family="sans-serif" font-size="14" lengthAdjust="spacing" textLength="33" x="125" y="364.9659">BIN2</text></g><g id="BIN1"><rect fill="#F1F1F1" height="50" rx="12.5" ry="12.5" style="stroke:#181818;stroke-width:0.5;" width="53" x="186" y="474"/><line style="stroke:#181818;stroke-width:0.5;" x1="186" x2="239" y1="503.0679" y2="503.0679"/><text fill="#000000" font-family="sans-serif" font-size="14" lengthAdjust="spacing" textLength="33" x="196" y="493.9659">BIN1</text></g><g id="EASTEREGG"><rect fill="#F1F1F1" height="50" rx="12.5" ry="12.5" style="stroke:#181818;stroke-width:0.5;" width="98" x="226.5" y="603"/><line style="stroke:#181818;stroke-width:0.5;" x1="226.5" x2="324.5" y1="632.0679" y2="632.0679"/><text fill="#000000" font-family="sans-serif" font-size="14" lengthAdjust="spacing" textLength="78" x="236.5" y="622.9659">EASTEREGG</text></g><!--link *start* to IDLE--><g id="link_*start*_IDLE"><path d="M175.5,26.01 C175.5,39.89 175.5,60.97 175.5,80.84 " fill="none" id="*start*-to-IDLE" style="stroke:#181818;stroke-width:1.0;"/><polygon fill="#181818" points="175.5,86.84,179.5,77.84,175.5,81.84,171.5,77.84,175.5,86.84" style="stroke:#181818;stroke-width:1.0;"/></g><!--link IDLE to IDLE--><g id="link_IDLE_IDLE"><path d="M200.78,102.86 C218.27,100.1 235.5,103.14 235.5,112 C235.5,120.86 224.1967,124.8353 206.7067,122.0753 " fill="none" id="IDLE-to-IDLE" style="stroke:#181818;stroke-width:1.0;"/><polygon fill="#181818" points="200.78,121.14,209.0465,126.494,205.7189,121.9194,210.2935,118.5918,200.78,121.14" style="stroke:#181818;stroke-width:1.0;"/><text fill="#000000" font-family="sans-serif" font-size="13" lengthAdjust="spacing" textLength="57" x="241.5" y="117.397">b0, b1, b2</text></g><!--link IDLE to BIN3--><g id="link_IDLE_BIN3"><path d="M150.35,116.61 C121.27,122.17 74.14,135.66 48.5,167 C37.36,180.62 34.1558,194.3794 33.2858,209.8994 " fill="none" id="IDLE-to-BIN3" style="stroke:#181818;stroke-width:1.0;"/><polygon fill="#181818" points="32.95,215.89,37.4474,207.128,33.2298,210.8978,29.46,206.6802,32.95,215.89" style="stroke:#181818;stroke-width:1.0;"/><text fill="#000000" font-family="sans-serif" font-size="13" lengthAdjust="spacing" textLength="15" x="49.5" y="181.897">b3</text></g><!--link BIN3 to IDLE--><g id="link_BIN3_IDLE"><path d="M58.49,216 C73.65,201.59 93.48,183.02 111.5,167 C124.1,155.8 133.8248,147.5061 145.7148,137.5761 " fill="none" id="BIN3-to-IDLE" style="stroke:#181818;stroke-width:1.0;"/><polygon fill="#181818" points="150.32,133.73,140.8482,136.429,146.4823,136.935,145.9762,142.5692,150.32,133.73" style="stroke:#181818;stroke-width:1.0;"/><text fill="#000000" font-family="sans-serif" font-size="13" lengthAdjust="spacing" textLength="36" x="112.5" y="181.897">b0, b1</text></g><!--link BIN3 to BIN3--><g id="link_BIN3_BIN3"><path d="M60.05,230.06 C77.76,226.98 95,230.62 95,241 C95,251.38 83.6713,256.048 65.9613,252.968 " fill="none" id="BIN3-to-BIN3" style="stroke:#181818;stroke-width:1.0;"/><polygon fill="#181818" points="60.05,251.94,68.2315,257.4229,64.9761,252.7967,69.6023,249.5412,60.05,251.94" style="stroke:#181818;stroke-width:1.0;"/><text fill="#000000" font-family="sans-serif" font-size="13" lengthAdjust="spacing" textLength="15" x="101" y="246.397">b3</text></g><!--link BIN3 to BIN2--><g id="link_BIN3_BIN2"><path d="M54.07,266.19 C73.29,288.78 97.9335,317.7589 117.1235,340.3289 " fill="none" id="BIN3-to-BIN2" style="stroke:#181818;stroke-width:1.0;"/><polygon fill="#181818" points="121.01,344.9,118.2276,335.4523,117.7712,341.0908,112.1328,340.6344,121.01,344.9" style="stroke:#181818;stroke-width:1.0;"/><text fill="#000000" font-family="sans-serif" font-size="13" lengthAdjust="spacing" textLength="15" x="95.5" y="310.897">b2</text></g><!--link BIN2 to BIN2--><g id="link_BIN2_BIN2"><path d="M168.05,359.06 C185.76,355.98 203,359.62 203,370 C203,380.38 191.6713,385.048 173.9613,381.968 " fill="none" id="BIN2-to-BIN2" style="stroke:#181818;stroke-width:1.0;"/><polygon fill="#181818" points="168.05,380.94,176.2315,386.4229,172.9761,381.7967,177.6023,378.5412,168.05,380.94" style="stroke:#181818;stroke-width:1.0;"/><text fill="#000000" font-family="sans-serif" font-size="13" lengthAdjust="spacing" textLength="15" x="209" y="375.397">b2</text></g><!--link BIN2 to IDLE--><g id="link_BIN2_IDLE"><path d="M144.71,344.79 C151.21,295.9 165.0302,191.8278 171.5102,143.0278 " fill="none" id="BIN2-to-IDLE" style="stroke:#181818;stroke-width:1.0;"/><polygon fill="#181818" points="172.3,137.08,167.1501,145.4752,171.6418,142.0365,175.0805,146.5282,172.3,137.08" style="stroke:#181818;stroke-width:1.0;"/><text fill="#000000" font-family="sans-serif" font-size="13" lengthAdjust="spacing" textLength="36" x="161.5" y="246.397">b0, b3</text></g><!--link BIN2 to BIN1--><g id="link_BIN2_BIN1"><path d="M155.02,395.19 C167.66,417.78 183.4818,446.0931 196.1018,468.6631 " fill="none" id="BIN2-to-BIN1" style="stroke:#181818;stroke-width:1.0;"/><polygon fill="#181818" points="199.03,473.9,198.1289,464.0924,196.5898,469.5359,191.1464,467.9968,199.03,473.9" style="stroke:#181818;stroke-width:1.0;"/><text fill="#000000" font-family="sans-serif" font-size="13" lengthAdjust="spacing" textLength="15" x="181.5" y="439.897">b1</text></g><!--link BIN1 to BIN1--><g id="link_BIN1_BIN1"><path d="M239.05,488.06 C256.76,484.98 274,488.62 274,499 C274,509.38 262.6713,514.048 244.9613,510.968 " fill="none" id="BIN1-to-BIN1" style="stroke:#181818;stroke-width:1.0;"/><polygon fill="#181818" points="239.05,509.94,247.2315,515.4229,243.9761,510.7967,248.6023,507.5412,239.05,509.94" style="stroke:#181818;stroke-width:1.0;"/><text fill="#000000" font-family="sans-serif" font-size="13" lengthAdjust="spacing" textLength="15" x="280" y="504.397">b1</text></g><!--link BIN1 to EASTEREGG--><g id="link_BIN1_EASTEREGG"><path d="M224.5,524.19 C235.71,546.78 249.6829,574.9554 260.8829,597.5254 " fill="none" id="BIN1-to-EASTEREGG" style="stroke:#181818;stroke-width:1.0;"/><polygon fill="#181818" points="263.55,602.9,263.1325,593.06,261.3274,598.4211,255.9663,596.6161,263.55,602.9" style="stroke:#181818;stroke-width:1.0;"/><text fill="#000000" font-family="sans-serif" font-size="13" lengthAdjust="spacing" textLength="15" x="248.5" y="568.897">b0</text></g><!--link BIN1 to IDLE--><g id="link_BIN1_IDLE"><path d="M217.99,473.6 C222.37,452.83 228.15,422.13 230.5,395 C238.88,298.34 204.8499,191.4116 187.0199,142.9016 " fill="none" id="BIN1-to-IDLE" style="stroke:#181818;stroke-width:1.0;"/><polygon fill="#181818" points="184.95,137.27,184.3005,147.0974,186.6749,141.963,191.8093,144.3375,184.95,137.27" style="stroke:#181818;stroke-width:1.0;"/><text fill="#000000" font-family="sans-serif" font-size="13" lengthAdjust="spacing" textLength="36" x="229.5" y="310.897">b2, b3</text></g><!--link EASTEREGG to IDLE--><g id="link_EASTEREGG_IDLE"><path d="M295.46,602.92 C313.58,578.55 337.5,539.01 337.5,500 C337.5,240 337.5,240 337.5,240 C337.5,171.38 252.1058,136.043 206.5358,121.773 " fill="none" id="EASTEREGG-to-IDLE" style="stroke:#181818;stroke-width:1.0;"/><polygon fill="#181818" points="200.81,119.98,208.2034,126.4867,205.5815,121.4742,210.5941,118.8523,200.81,119.98" style="stroke:#181818;stroke-width:1.0;"/></g><!--SRC=[YzQALT3LjLFmTF5nvG8HS9w2bKAIWOv2aY4G6o6ad3pzZ45InbnW5WuX50DGL1g1X8sum2mSGiYQZL5K6eA4mUOPuX9oTGmESGroTNS7cu0GXnbg13OKeGhkUG00]--></g></svg>